<?xml version="1.0" encoding="utf-8"?>
<!-- Generator: Adobe Illustrator 16.0.0, SVG Export Plug-In . SVG Version: 6.00 Build 0)  -->
<!DOCTYPE svg PUBLIC "-//W3C//DTD SVG 1.1//EN" "http://www.w3.org/Graphics/SVG/1.1/DTD/svg11.dtd">
<svg version="1.1" id="Layer_1" xmlns="http://www.w3.org/2000/svg" xmlns:xlink="http://www.w3.org/1999/xlink" x="0px" y="0px"
	 width="300px" height="300px" viewBox="0 0 300 300" enable-background="new 0 0 300 300" xml:space="preserve">
<g id="Apps">
	<path fill="#FFFFFF" d="M18.75,185v81.25c0,10.312,8.438,18.75,18.75,18.75h225c10.312,0,18.75-8.438,18.75-18.75V185H18.75z"/>
	<path fill="#FFFFFF" d="M18.75,172.5h262.5c0-44.688-22.5-84.062-56.562-107.812l24.375-38.75c1.875-2.812,0.938-6.875-1.875-8.75
		s-6.875-0.938-8.75,1.875l-24.375,38.75C195,47.188,173.125,40.938,150,40.938c-23.438,0-45.312,6.25-64.062,16.875l-24.375-38.75
		c-1.875-2.812-5.625-3.75-8.75-1.875c-2.812,1.875-3.75,5.625-1.875,8.75l24.375,38.75C41.25,88.438,18.75,127.812,18.75,172.5z
		 M206.25,100.625c8.75,0,15.625,6.875,15.625,15.625S215,131.875,206.25,131.875S190.625,125,190.625,116.25
		S197.5,100.625,206.25,100.625z M93.75,100.625c8.75,0,15.625,6.875,15.625,15.625s-6.875,15.625-15.625,15.625
		S78.125,125,78.125,116.25S85,100.625,93.75,100.625z"/>
</g>
<path id="Movies" display="none" fill="#FFFFFF" d="M281.25,38.75H18.75C8.438,38.75,0,47.188,0,57.5V245
	c0,10.312,8.438,18.75,18.75,18.75h262.5c10.312,0,18.75-8.438,18.75-18.75V57.5C300,47.188,291.562,38.75,281.25,38.75z
	 M50,235.625c0,1.875-1.562,3.125-3.125,3.125h-18.75c-1.562,0-3.125-1.25-3.125-3.125v-18.75c0-1.562,1.562-3.125,3.125-3.125
	h18.75c1.562,0,3.125,1.562,3.125,3.125V235.625z M50,185.625c0,1.875-1.562,3.125-3.125,3.125h-18.75
	c-1.562,0-3.125-1.25-3.125-3.125v-18.75c0-1.562,1.562-3.125,3.125-3.125h18.75c1.562,0,3.125,1.562,3.125,3.125V185.625z
	 M50,135.625c0,1.875-1.562,3.125-3.125,3.125h-18.75c-1.562,0-3.125-1.25-3.125-3.125v-18.75c0-1.562,1.562-3.125,3.125-3.125
	h18.75c1.562,0,3.125,1.562,3.125,3.125V135.625z M50,85.625c0,1.875-1.562,3.125-3.125,3.125h-18.75
	C26.562,88.75,25,87.5,25,85.625v-18.75c0-1.562,1.562-3.125,3.125-3.125h18.75c1.562,0,3.125,1.562,3.125,3.125V85.625z
	 M275,235.625c0,1.875-1.562,3.125-3.125,3.125h-18.75c-1.562,0-3.125-1.25-3.125-3.125v-18.75c0-1.562,1.562-3.125,3.125-3.125
	h18.75c1.562,0,3.125,1.562,3.125,3.125V235.625z M275,185.625c0,1.875-1.562,3.125-3.125,3.125h-18.75
	c-1.562,0-3.125-1.25-3.125-3.125v-18.75c0-1.562,1.562-3.125,3.125-3.125h18.75c1.562,0,3.125,1.562,3.125,3.125V185.625z
	 M275,135.625c0,1.875-1.562,3.125-3.125,3.125h-18.75c-1.562,0-3.125-1.25-3.125-3.125v-18.75c0-1.562,1.562-3.125,3.125-3.125
	h18.75c1.562,0,3.125,1.562,3.125,3.125V135.625z M275,85.625c0,1.875-1.562,3.125-3.125,3.125h-18.75
	c-1.562,0-3.125-1.25-3.125-3.125v-18.75c0-1.562,1.562-3.125,3.125-3.125h18.75c1.562,0,3.125,1.562,3.125,3.125V85.625z"/>
<g id="Music" display="none">
	<path display="inline" fill="#FFFFFF" d="M150,0C67.188,0,0,67.188,0,150c0,9.688,0.938,19.062,2.5,28.125L18.75,262.5H37.5
		l5.625,30c0.938,4.375,4.688,7.5,9.062,7.5H93.75c10.312,0,18.75-8.438,18.75-18.75c0-1.25,0-2.188-0.312-3.438l-17.5-93.75
		c-0.312-1.25-0.625-2.188-0.938-3.438C90,170.938,79.062,166.25,69.375,170l-38.75,15c-4.375,1.562-6.562,5.938-5.938,10.312
		l-3.75-20.625c-1.562-8.125-2.188-16.25-2.188-24.688C18.75,77.5,77.5,18.75,150,18.75S281.25,77.5,281.25,150
		c0,8.438-0.625,16.562-2.188,24.688L275,195.312c0.938-4.375-1.562-8.75-5.938-10.312l-38.75-15
		c-9.688-3.75-20.625,0.938-24.375,10.625c-0.312,1.25-0.625,2.188-0.938,3.438l-17.5,93.75c0,1.25,0,2.188,0,3.438
		c0,10.312,8.438,18.75,18.75,18.75h41.562c4.688,0,8.438-3.125,9.062-7.5l5.625-30h18.75l16.25-84.375
		c1.875-9.062,2.5-18.438,2.5-28.125C300,67.188,232.812,0,150,0z M275,195.625C275,195.625,275,195.312,275,195.625
		C275,195.312,275,195.625,275,195.625L275,195.625z"/>
	<g display="inline">
		<path fill="#FFFFFF" d="M9.375,149.375C9.375,71.562,72.188,8.75,150,8.75s140.625,62.812,140.625,140.625h-31.562
			c-5,0-9.062-3.75-9.375-8.75c-4.375-50.938-47.5-91.25-99.688-91.25s-95.312,40.312-99.688,91.562
			c-0.312,4.688-4.375,8.75-9.375,8.75L9.375,149.375z"/>
	</g>
</g>
<g id="Books" display="none">
	<path display="inline" fill="#FFFFFF" d="M71.875,9.688H56.562c-5.938,0-11.562,3.125-14.688,7.812
		c-0.625,0.938-1.25,1.875-1.562,3.125c-0.938,2.188-1.25,4.375-1.25,6.875l0,0v249.062c0,1.25,0,2.5,0.312,3.438
		s0.625,2.188,0.938,3.438s0.938,2.188,1.562,3.125c3.125,4.688,8.438,7.812,14.688,7.812h15.312V9.688z"/>
	<path display="inline" fill="#FFFFFF" d="M243.438,9.688h-20.625v115.625l-26.562-17.188l-26.562,17.188V9.688H84.375v284.375
		h159.062c9.688,0,17.5-7.812,17.5-17.5V27.188C260.938,17.5,253.125,9.688,243.438,9.688z"/>
</g>
</svg>
