<?xml version="1.0" encoding="utf-8"?>
<!-- Generator: Adobe Illustrator 16.0.0, SVG Export Plug-In . SVG Version: 6.00 Build 0)  -->
<!DOCTYPE svg PUBLIC "-//W3C//DTD SVG 1.1//EN" "http://www.w3.org/Graphics/SVG/1.1/DTD/svg11.dtd">
<svg version="1.1" id="Layer_1" xmlns="http://www.w3.org/2000/svg" xmlns:xlink="http://www.w3.org/1999/xlink" x="0px" y="0px"
	 width="300px" height="69.75px" viewBox="0 0 300 69.75" enable-background="new 0 0 300 69.75" xml:space="preserve">
<g>
	<g>
		<g>
			<path fill="#737578" d="M214.961,46.023l-2.31,2.18c-0.529,0.288-1.061,0.628-1.59,0.869c-1.593,0.722-3.231,0.915-4.678,0.915
				c-1.543,0-3.953-0.098-6.413-1.881c-3.423-2.412-4.918-6.556-4.918-10.174c0-7.473,6.076-11.136,11.043-11.136
				c1.734,0,3.52,0.433,4.966,1.35c2.41,1.59,3.037,3.663,3.373,4.771l-11.328,4.581l-3.714,0.29c1.206,6.122,5.352,9.69,9.932,9.69
				c2.29,0,3.993-0.751,5.542-1.515C214.866,45.965,215.184,45.801,214.961,46.023z M208.119,33.835
				c0.916-0.338,1.398-0.627,1.398-1.303c0-1.927-2.168-4.146-4.773-4.146c-1.928,0-5.545,1.494-5.545,6.702
				c0,0.82,0.097,1.689,0.145,2.556L208.119,33.835z"/>
			<path fill="#737578" d="M191.256,45.648c0,1.88,0.336,2.167,1.929,2.313c0.819,0.098,1.64,0.145,2.459,0.241l-1.785,1.06h-8.499
				c1.11-1.447,1.303-1.59,1.303-2.554v-1.071l-0.011-28.678h-3.76l3.617-1.736h6.892c-1.493,0.869-1.941,1.394-2.133,3.081
				L191.256,45.648z"/>
			<path fill="#737578" d="M178.082,29.158c1.107,0.916,3.422,2.845,3.422,6.509c0,3.568-2.023,5.255-4.049,6.845
				c-0.627,0.627-1.351,1.303-1.351,2.364c0,1.061,0.724,1.64,1.253,2.072l1.737,1.351c2.121,1.783,4.05,3.423,4.05,6.751
				c0,4.532-4.389,9.112-12.681,9.112c-6.991,0-10.366-3.328-10.366-6.895c0-1.737,0.867-4.195,3.714-5.884
				c2.988-1.832,7.038-2.072,9.207-2.217c-0.675-0.868-1.445-1.786-1.445-3.279c0-0.819,0.24-1.302,0.481-1.881
				c-0.53,0.048-1.061,0.098-1.542,0.098c-5.111,0-8.004-3.811-8.004-7.571c0-2.216,1.012-4.677,3.086-6.46
				c2.749-2.266,6.027-2.651,8.63-2.651h9.932l-3.086,1.735H178.082z M174.659,50.565c-0.387-0.048-0.627-0.048-1.109-0.048
				c-0.434,0-3.037,0.097-5.063,0.772c-1.061,0.384-4.146,1.542-4.146,4.966c0,3.423,3.326,5.881,8.485,5.881
				c4.629,0,7.089-2.217,7.089-5.206C179.915,54.47,178.323,53.169,174.659,50.565z M176.058,41.405
				c1.107-1.11,1.205-2.652,1.205-3.521c0-3.471-2.072-8.87-6.075-8.87c-1.254,0-2.604,0.627-3.376,1.591
				c-0.819,1.013-1.061,2.313-1.061,3.567c0,3.23,1.88,8.583,6.026,8.583C173.982,42.755,175.285,42.177,176.058,41.405z"/>
			<path fill="#737578" d="M148.189,49.89c-7.68,0-11.784-5.979-11.784-11.379c0-6.315,5.166-11.714,12.505-11.714
				c7.088,0,11.525,5.545,11.525,11.376C160.437,43.863,156.049,49.89,148.189,49.89z M154.216,45.985
				c1.157-1.543,1.447-3.473,1.447-5.353c0-4.243-2.028-12.342-8.006-12.342c-1.599,0-3.194,0.627-4.351,1.639
				c-1.879,1.688-2.217,3.81-2.217,5.883c0,4.771,2.361,12.631,8.209,12.631C151.178,48.443,153.106,47.528,154.216,45.985z"/>
			<path fill="#737578" d="M122.518,49.89c-7.666,0-11.764-5.979-11.764-11.379c0-6.315,5.159-11.714,12.488-11.714
				c7.086,0,11.523,5.545,11.523,11.376C134.765,43.863,130.378,49.89,122.518,49.89z M128.545,45.985
				c1.158-1.543,1.447-3.473,1.447-5.353c0-4.243-2.025-12.342-8.003-12.342c-1.591,0-3.183,0.627-4.339,1.639
				c-1.881,1.688-2.219,3.81-2.219,5.883c0,4.771,2.364,12.631,8.198,12.631C125.508,48.443,127.437,47.528,128.545,45.985z"/>
			<path fill="#737578" d="M107.689,48.208l-6.464,1.491c-2.622,0.406-4.973,0.769-7.458,0.769
				c-12.477,0-17.222-9.176-17.222-16.363c0-8.771,6.735-16.906,18.262-16.906c2.441,0,4.79,0.362,6.916,0.949
				c3.39,0.951,4.972,2.125,5.966,2.804l-3.752,3.571l-1.581,0.359l1.129-1.808c-1.536-1.49-4.341-4.247-9.673-4.247
				c-7.142,0-12.522,5.424-12.522,13.335c0,8.497,6.148,16.498,16.003,16.498c2.894,0,4.384-0.588,5.738-1.131v-7.277l-6.824,0.362
				l3.615-1.943h9.584l-1.174,1.13c-0.318,0.269-0.362,0.361-0.454,0.722c-0.045,0.408-0.09,1.72-0.09,2.171V48.208z"/>
		</g>
		<g>
			<path fill="#737578" d="M228.858,46.231v12.274h-2.437V27.257h2.437v3.56c1.593-2.295,4.497-4.123,7.87-4.123
				c6.043,0,10.119,4.591,10.119,11.853c0,7.214-4.076,11.899-10.119,11.899C233.543,50.447,230.685,48.808,228.858,46.231z
				 M244.225,38.548c0-5.482-2.857-9.651-7.917-9.651c-3.14,0-6.138,2.471-7.449,4.626v10.003c1.312,2.155,4.31,4.72,7.449,4.72
				C241.367,48.245,244.225,44.029,244.225,38.548z"/>
			<path fill="#737578" d="M250.174,49.885V18.637h2.437v31.248H250.174z"/>
			<path fill="#737578" d="M279.99,56.49c0.515,0.234,1.405,0.375,1.969,0.375c1.497,0,2.527-0.609,3.466-2.765l1.78-4.027
				l-9.604-22.816h2.718l8.245,19.77l8.15-19.77h2.765l-11.711,27.594c-1.219,2.857-3.14,4.216-5.764,4.216
				c-0.796,0-1.827-0.141-2.436-0.328L279.99,56.49z"/>
			<path fill="#737578" d="M272.859,49.82c-0.164-0.797-0.288-1.482-0.371-2.057c-0.082-0.574-0.123-1.162-0.123-1.764
				c-0.841,1.231-2.018,2.249-3.532,3.055c-1.516,0.804-2.954,1.206-4.921,1.206c-2.384,0-4.232-0.591-5.545-1.773
				c-1.312-1.182-1.968-2.788-1.968-4.817c0-2.028,0.953-3.673,2.856-4.933c1.905-1.26,4.379-1.89,7.424-1.89h5.686v-2.812
				c0-1.624-0.552-2.897-1.653-3.821c-1.103-0.923-2.657-1.386-4.668-1.386c-1.845,0-3.332,0.42-4.466,1.26
				c-1.132,0.839-1.697,1.896-1.697,3.169h-2.498l-0.045-0.126c-0.09-1.707,0.694-3.208,2.352-4.503
				c1.657-1.294,3.819-1.941,6.489-1.941c2.669,0,4.813,0.637,6.435,1.91c1.618,1.273,2.431,3.1,2.431,5.479v11.167
				c0,0.798,0.047,1.575,0.146,2.33c0.097,0.756,0.259,1.505,0.483,2.246H272.859z M264.204,48.036c2.071,0,3.563-0.459,5.079-1.375
				s2.542-2.095,3.082-3.537v-4.345h-5.707c-2.19,0-3.998,0.486-5.423,1.459c-1.424,0.973-2.136,2.146-2.136,3.516
				c0,1.287,0.452,2.323,1.36,3.106C261.367,47.645,262.616,48.036,264.204,48.036z"/>
		</g>
	</g>
	<g>
		<polygon fill="none" points="36.64,34.849 47.443,24.045 47.443,24.045 36.64,34.848 2.16,0.368 2.157,0.369 36.638,34.85 
			2.1,69.391 2.101,69.391 36.638,34.85 47.493,45.705 47.495,45.704 		"/>
		
			<linearGradient id="SVGID_1_" gradientUnits="userSpaceOnUse" x1="523.9365" y1="-423.0488" x2="478.4081" y2="-451.5424" gradientTransform="matrix(0.7071 0.7071 -0.7071 0.7071 -640.2398 -39.2646)">
			<stop  offset="0" style="stop-color:#D6FFA1"/>
			<stop  offset="0.3264" style="stop-color:#93E2A7"/>
			<stop  offset="1" style="stop-color:#00A3B5"/>
		</linearGradient>
		<path fill="url(#SVGID_1_)" d="M47.443,24.045L5.342,0.896C4.149,0.241,3.047,0.09,2.16,0.368l34.48,34.48L47.443,24.045z"/>
		
			<linearGradient id="SVGID_2_" gradientUnits="userSpaceOnUse" x1="497.4688" y1="-447.3848" x2="556.4954" y2="-431.9545" gradientTransform="matrix(0.7071 0.7071 -0.7071 0.7071 -640.2398 -39.2646)">
			<stop  offset="0" style="stop-color:#FF177B"/>
			<stop  offset="0.6721" style="stop-color:#FFA976"/>
			<stop  offset="1" style="stop-color:#FFEC73"/>
		</linearGradient>
		<path fill="url(#SVGID_2_)" d="M47.495,45.704l14.373-7.902c2.913-1.602,2.913-4.223,0-5.825l-14.425-7.931L36.64,34.849
			L47.495,45.704z"/>
		
			<linearGradient id="SVGID_3_" gradientUnits="userSpaceOnUse" x1="530.416" y1="-401.4341" x2="466.4067" y2="-439.0933" gradientTransform="matrix(0.7071 0.7071 -0.7071 0.7071 -640.2398 -39.2646)">
			<stop  offset="0" style="stop-color:#63FFD4"/>
			<stop  offset="0.4854" style="stop-color:#32A0BA"/>
			<stop  offset="0.8349" style="stop-color:#1262A9"/>
			<stop  offset="1" style="stop-color:#064AA2"/>
		</linearGradient>
		<path fill="url(#SVGID_3_)" d="M2.157,0.369c-1.28,0.403-2.111,1.697-2.111,3.66l0.008,61.72c0,1.936,0.803,3.219,2.046,3.643
			L36.638,34.85L2.157,0.369z"/>
		
			<linearGradient id="SVGID_4_" gradientUnits="userSpaceOnUse" x1="553.6562" y1="-431.3369" x2="514.2413" y2="-379.4096" gradientTransform="matrix(0.7071 0.7071 -0.7071 0.7071 -640.2398 -39.2646)">
			<stop  offset="0" style="stop-color:#FF4521"/>
			<stop  offset="0.3411" style="stop-color:#D43E65"/>
			<stop  offset="0.7935" style="stop-color:#9F36B9"/>
			<stop  offset="1" style="stop-color:#8A33DB"/>
		</linearGradient>
		<path fill="url(#SVGID_4_)" d="M2.101,69.391c0.896,0.305,2.021,0.164,3.241-0.506l42.151-23.18L36.638,34.85L2.101,69.391z"/>
	</g>
</g>
</svg>
